<!--?xml version="1.0" encoding="utf-8"?-->
<!-- Generator: Adobe Illustrator 18.1.1, SVG Export Plug-In . SVG Version: 6.00 Build 0)  -->

<svg version="1.1" id="_x31_0" xmlns="http://www.w3.org/2000/svg" xmlns:xlink="http://www.w3.org/1999/xlink" x="0px" y="0px" viewBox="0 0 512 512" style="width: 32px; height: 32px; opacity: 1;" xml:space="preserve">
<style type="text/css">
	.st0{fill:#374149;}
</style>
<g>
	<path class="st0" d="M324.74,0v111.496v0.34l0,0v0.16h26.34v36.898l-0.027,6.23c-1.481-0.27-2.895-0.406-4.375-0.539
		c-1.422-0.136-2.844-0.203-4.199-0.203c-2.367,0-4.672,0.203-6.906,0.473c-7.45,1.153-14.152,4.133-19.637,9.211l-117.207,107.66
		c-24.308,22.348-18.554,64.328,14.016,96.898c19.16,19.16,41.438,28.981,61.21,28.981c13.883,0,26.477-4.879,35.684-14.898
		L417.303,265.5c13.473-14.629,12.594-38.054-0.406-60.738c-1.289-2.305-2.777-4.606-4.336-6.84v-85.926h26.168h0.082l0,0h0.156V0
		H324.74z M393.021,176.23c-1.05-0.981-2.098-1.902-3.21-2.754c-0.879-0.676-1.828-1.422-2.707-2.098
		c-4.402-3.321-8.871-6.094-13.34-8.465c-1.086-0.543-2.168-1.082-3.25-1.626v-43.133h22.613v34.738L393.021,176.23z
		 M370.475,194.61c-0.191,0.054-0.383,0.062-0.57,0.062c-3.386,0-6.84,0.133-10.293,0.336c-2.844,0.207-5.688,0.41-8.531,0.816
		c-1.492,0.066-2.914,0.27-4.402,0.473c-12.527,1.625-25.324,4.672-37.989,9.207c-2.031,0.746-4.129,1.492-6.16,2.305
		c-0.91,0.355-1.777,0.332-2.515,0.062c-0.004-0.004-0.008-0.004-0.012-0.004c-2.222-0.824-3.313-3.922-1.129-5.95l29.59-27.156
		c1.828-1.691,4.266-2.774,7.11-3.179c0.95-0.137,1.965-0.203,2.981-0.203c2.574,0,5.281,0.406,8.125,1.148
		c6.637,1.898,13.746,5.758,20.449,11.379c1.153,0.878,2.301,1.894,3.387,2.976c0.675,0.543,1.285,1.153,1.894,1.762
		c0,0.07,0,0.07,0.07,0.07c1.992,2.058,0.766,5.269-1.844,5.832C370.576,194.562,370.537,194.594,370.475,194.61z M209.291,282.359
		c15.981-14.965,48.348-7.179,72.653,17.129c24.242,24.309,32.098,56.61,17.133,72.59c-15.305,16.316-48.481,9.343-73.805-15.981
		C200.014,330.84,192.971,297.66,209.291,282.359z" style="fill: rgb(75, 75, 75);"></path>
	<path class="st0" d="M160.596,413.633l-36.652,32.481c-3.535,3.133-3.684,8.609-0.328,11.934l4.492,4.461
		c3.363,3.332,8.832,3.129,11.946-0.434l32.148-36.938c2.832-3.254,2.656-8.145-0.41-11.184
		C168.724,410.914,163.83,410.778,160.596,413.633z" style="fill: rgb(75, 75, 75);"></path>
	<path class="st0" d="M251.94,446.75c-4.32,0.012-7.879,3.379-8.137,7.68l-2.942,48.886c-0.285,4.727,3.473,8.699,8.203,8.684
		l6.332-0.027c4.726-0.024,8.458-4.035,8.133-8.75l-3.39-48.859C259.842,450.062,256.248,446.73,251.94,446.75z" style="fill: rgb(75, 75, 75);"></path>
	<path class="st0" d="M138.295,334.102c-0.019-4.313-3.386-7.871-7.695-8.133l-48.89-2.961c-4.726-0.286-8.703,3.476-8.676,8.207
		l0.023,6.332c0.024,4.734,4.035,8.457,8.754,8.133l48.863-3.379C134.979,342.012,138.315,338.418,138.295,334.102z" style="fill: rgb(75, 75, 75);"></path>
</g>
</svg>
