<!--?xml version="1.0" encoding="utf-8"?-->
<!-- Generator: Adobe Illustrator 19.2.1, SVG Export Plug-In . SVG Version: 6.00 Build 0)  -->
<svg version="1.1" id="_x31_0" xmlns="http://www.w3.org/2000/svg" xmlns:xlink="http://www.w3.org/1999/xlink" x="0px" y="0px" viewBox="0 0 512 512" style="width: 32px; height: 32px; opacity: 1;" xml:space="preserve">
<style type="text/css">
	.st0{fill:#374149;}
</style>
<g>
	<path class="st0" d="M225.918,83.68c6.242,0,12.32,2.718,16.485,7.441c4.398,4.958,6.476,11.598,5.679,18.321l-2.774,23.378
		l-0.347,2.782h0.019l-0.019,0.16h186.637c-1.36-27.519-11.758-54.402-30.958-79.519C368.64,14.718,319.277,0,286.559,0
		c-2.719,0-5.282,0.078-7.598,0.242c-15.043,1.438-22.082,4.32-27.199,6.476c-3.039,1.282-5.039,2.082-8.164,2.321
		c-1.438,0.164-2.875,0.164-4.321,0.164c-2.156,0-4.234-0.082-6.234-0.242c-2.242-0.16-4.402-0.242-6.722-0.242
		c-3.199,0-6,0.242-9.043,0.723c-8.957,1.598-18.078,7.679-25.438,12.637c-1.679,1.203-3.281,2.32-4.718,3.281
		c-1.203,0.719-2.16,0.801-2.883,0.801c-1.038,0-2.078-0.238-3.117-0.398c-1.68-0.32-3.203-0.558-4.883-0.558
		c-3.277,0-6.156,1.039-8.961,3.278c-4.234,3.519-5.277,7.359-5.914,10c-0.641,2.32-0.641,2.32-2.805,2.64
		C152.48,42,132.48,46.242,130,63.359c-0.082,3.68-0.481,8.082-0.801,12.883c-0.149,2.258-0.367,4.598-0.524,6.996l-0.035,0.281
		h0.012c-0.004,0.055-0.008,0.106-0.012,0.161H225.918z M372.559,110.641v-0.078c0,0,0,0-0.078,0l-7.519-0.641l-3.207-0.25
		l-1.859-0.234c0,0,0.054,0.086,0.062,0.098l-0.195-0.016c0,0,1.836,3.043,4.558,7.364c1.762,2.718,3.918,5.758,6.238,8.797
		c0.27,0.469,0.586,0.918,0.871,1.339c0.042,0.094,0.078,0.161,0.121,0.266c-1.746,0.238-3.566,0.395-5.313,0.477h-0.797
		c-16.64,0-30.64-9.281-37.441-14.801c-1.52-1.199-2.723-2.242-3.52-3.039c3.758,0.879,7.922,1.199,12.078,1.118
		c0.961,0,2-0.156,3.039-0.238c0.242,0,0.562-0.082,0.805,0c0.187-0.062,0.39-0.058,0.558-0.062l0.035,0.004l-0.004-0.008
		c0.035,0,0.098-0.016,0.129-0.016c0,0,0-0.078-0.078-0.078c0.078,0,0.078,0,0.078,0c-1.922-2.242-3.602-4.398-4.801-6.562
		c-0.238-0.238-0.32-0.477-0.558-0.719c-1.203-1.918-2.164-3.84-2.801-5.359c-1.106-2.676-1.578-4.328-1.594-4.379
		c0-0.007,0-0.015,0-0.019L341.598,94l2.007,0.05l0.973,0.106c0-0.004-0.042-0.074-0.042-0.082l0.187,0.004
		c0,0-2.562-4.875-7.922-11.195c-0.883-1.122-2-2.165-3.122-3.442c-0.16-0.16-0.402-0.321-0.558-0.481
		c-0.207-0.207-0.394-0.43-0.55-0.687c-0.008-0.035-0.02-0.062-0.024-0.098c1.426,0.238,2.996,0.55,4.496,1.027
		c0.797,0.238,1.598,0.477,2.321,0.797c16.156,5.602,26.476,17.039,31.598,24.242c2.16,2.797,3.442,5.039,4,6
		c0.066,0.199,0.133,0.332,0.203,0.469l0.007,0.086L372.559,110.641z" style="fill: rgb(75, 75, 75);"></path>
	<path class="st0" d="M238.961,182.242c0.082,0.238,0.16,0.476,0.16,0.641c0.477,2.476,2.961,30.238,4.558,49.195
		c0.039,0.39,0.29,0.602,0.434,0.902c0.047,0.098,0.086,0.199,0.141,0.289c1.218,1.926,4.379,1.926,5.187-0.629
		c5.082-17.309,12.821-34.164,20.883-45.332c1.328-1.79,2.664-3.461,3.996-4.91l-0.129,0.004c0.043-0.051,0.086-0.114,0.129-0.16
		H238.961z" style="fill: rgb(75, 75, 75);"></path>
	<path class="st0" d="M410.559,363.519c-21.164-15.566-29.457-36.066-32.145-54.031c-0.074-0.531-0.203-1.09-0.27-1.613
		c-0.078-0.602-0.102-1.172-0.168-1.77c-0.203-1.91-0.382-3.809-0.469-5.602l1.379,0.496l0.39,0.191l0.004-0.046l0.16,0.058
		l0.398-6.242c1.602-19.922,6.078-50.641,11.282-56.562c9.117-10.637,28.078-37.515,33.438-53.195
		c0.274-0.82,0.546-1.684,0.816-2.516l0.145-0.289h-0.05c0.015-0.05,0.035-0.106,0.05-0.156H370.48l-31.546-0.094
		c0.019,0.031,0.031,0.062,0.05,0.094h-0.183c12.562,18,9.117,44.398,7.758,52c-1.039,6.078-8.078,21.918-8.078,21.918
		s7.84,22.723,9.282,24.558c1.836,2.321,6.476,5.043,11.438,7.36c-0.778,16.77,1.386,40.742,15.172,62.918
		c0.019,0.031,0.042,0.066,0.066,0.098c1.179,1.89,2.434,3.77,3.789,5.633c0.179,0.246,0.386,0.485,0.57,0.734
		c1.21,1.625,2.457,3.246,3.812,4.84c0.825,0.973,1.746,1.922,2.626,2.882c0.766,0.833,1.48,1.676,2.293,2.497
		c3.606,3.671,7.633,7.218,12.144,10.594c-0.926,0.359-27.582,10.722-67.351,35.168c-23.762,14.48-74,61.199-93.442,79.519
		c-0.121,0.172-0.297,0.246-0.461,0.352c-0.183,0.121-0.394,0.214-0.633,0.273c-0.195,0.039-0.382,0.094-0.586,0.094
		c-1.68,0-3.039-1.602-2.477-3.36c3.836-10.48,9.515-26.801,13.195-38.801c11.68-38.078,7.125-54.316-3.918-91.679
		c-3.84-12.957-7.199-18.238-11.762-19.199c-0.32-0.078-1.117-0.078-2.078-0.078c-6.797,0-27.438,1.918-43.359,1.918
		c-8,0-14.962-0.559-18.242-2c-10.492-4.93-8.821-27.465-8.25-40.622l0.012-0.102h-0.008c0.004-0.046,0.004-0.109,0.008-0.156
		h-1.598c-12.242,0-9.762-8.961-9.762-8.961s0.957-4.641-1.122-6.562c-1.824-1.61-4.503-14.047-2.332-21.618
		c0.321-0.996,0.715-1.922,1.23-2.703c-0.023,0.004-0.058,0.004-0.086,0.008c0.027-0.05,0.039-0.117,0.07-0.164
		c-0.641,0.078-1.446,0.16-2.164,0.16c-7.988,0-22.578-3.434-25.89-9.863c-0.008-0.015-0.012-0.031-0.02-0.047
		c-0.473-0.937-0.695-1.941-0.633-3.003c0.004-0.13,0.031-0.254,0.047-0.383c0.058-0.492,0.148-0.988,0.34-1.504
		c1-2.797,2.25-5.434,3.582-8.031c0.153-0.254,0.258-0.515,0.418-0.77h-0.074c0.027-0.05,0.043-0.11,0.074-0.16h-20
		c-0.402,0.883-0.805,1.84-1.126,2.801c-2.874,7.598-1.758,15.762,2.961,22.402c5.442,7.68,14.641,11.918,22.485,14.078
		c0.554,5.519,1.836,10.797,3.836,15.038c-0.477,6.242,1.281,12.481,4.961,17.199c1.68,2.321,3.758,4.161,6.078,5.762
		c0,16.718,2.64,35.922,19.281,43.679c5.602,2.641,13.359,3.758,25.922,3.758c9.758,0,20.961-0.718,30-1.277
		c0,0,6-0.402,7.758-0.481c0.562,1.438,1.203,3.52,1.922,6.078c10.641,36,14.16,48.164,4,81.121
		c-2.718,8.879-7.039,21.68-12.882,37.918c-2.321,6.402-1.36,13.441,2.562,19.042c3.922,5.52,10.242,8.879,17.039,8.879
		c5.359,0,10.32-2.078,14.242-5.758c10.962-10.402,66.641-62.641,90.321-77.282c36.558-22.398,61.758-32.641,64.476-33.758
		l20.055-7.703l10.89-4.09l-0.082-0.059l0.175-0.07L410.559,363.519z" style="fill: rgb(75, 75, 75);"></path>
	<path class="st0" d="M284.723,296.32c-0.242,0.321-0.485,0.719-0.722,1.122c-0.801,1.121-1.68,2.32-2.723,3.679
		c-1.039,1.199-2.234,2.481-3.438,3.762c-1.199,1.195-2.476,2.476-3.758,3.679c-5.602,5.039-11.679,9.278-15.762,11.918
		c-2.238,1.441-4.238,2.64-5.598,3.359c-0.722,0.402-1.203,0.641-1.602,0.801c-0.242,0.078-0.398,0.16-0.398,0.16l-0.32,0.16
		c-0.962,0.558-1.442,1.758-1.126,2.879c0.122,0.277,0.45,0.418,0.676,0.637c0.023,0.019,0.043,0.039,0.066,0.062
		c0.218,0.191,0.328,0.473,0.621,0.582c0.238,0.161,0.402,0.161,0.637,0.238c0.321,0,0.641-0.078,0.961-0.156
		c0,0,0.242-0.082,0.723-0.32c0.48-0.165,1.121-0.402,1.918-0.723c1.602-0.801,3.762-1.918,6.082-3.199
		c3.519-1.922,10.48-6,17.359-11.442l1.043-0.878c1.117-0.879,2.234-1.84,3.277-2.801c1.442-1.278,2.879-2.637,4.082-4
		c1.438-1.52,2.554-2.801,3.438-4c0.398-0.481,0.718-0.957,1.039-1.442c0.164-0.238,0.32-0.398,0.48-0.637
		c0.238-0.48,0.481-0.878,0.723-1.199l0.558-0.882c0.402-0.719,0.718-1.36,1.039-2l0.238-0.477c0.242-0.485,0.402-0.961,0.641-1.442
		l0.164-0.48c0.157-0.481,0.321-0.883,0.398-1.203c0.157-0.398,0.238-0.797,0.321-1.118c0.078-0.16,0.078-0.398,0.156-0.562
		c0.242-1.117,0.32-1.918,0.402-2.32c0.082-0.559,0.082-0.875,0.082-0.958c0.078-1.199-0.242-2.32-1.039-3.121
		c-0.641-0.879-1.684-1.359-2.723-1.438c-0.082,0-0.082,0-0.16,0c-1.117-0.082-2.242,0.238-3.039,1.039
		c-0.882,0.718-1.359,1.758-1.523,2.879v0.722c0,0.156-0.078,0.398-0.078,0.637s0,0.48-0.078,0.878
		c-0.082,0.165-0.082,0.402-0.082,0.563c-0.082,0.16-0.082,0.32-0.082,0.398c-0.078,0.16-0.157,0.48-0.234,0.718
		c-0.086,0.164-0.086,0.402-0.164,0.562c-0.157,0.481-0.321,0.961-0.477,1.438l-0.242,0.485c-0.16,0.398-0.32,0.718-0.48,1.038
		c-0.161,0.321-0.238,0.559-0.402,0.879c-0.157,0.238-0.321,0.558-0.398,0.801C285.043,295.84,284.879,296.078,284.723,296.32z" style="fill: rgb(75, 75, 75);"></path>
	<path class="st0" d="M289.277,233.442c-4.398,2.398-4.234,6.078-3.598,7.762c3.199,8.238,8.082,6,8,5.68
		c-2.16-7.68,0.961-4.723,0.879-8c-0.078-1.043-0.156-2.402-0.078-2.805c0.16-0.477,1.359-1.598,2.242-2.398
		c1.278-1.36,2.797-2.879,4.078-4.797c0.14-0.215,0.336-0.426,0.492-0.637l0.078-0.066c0.793,1.195,1.511,2.546,2.148,4.14
		c0.16,0.398,0.32,0.801,0.398,1.282c0.016-0.016,0.008-0.019,0.016-0.027c0,0.011,0.007,0.015,0.007,0.027
		c0.028-0.051,0.039-0.09,0.066-0.141c0.012,0.074,0.074,0.149,0.074,0.219c5.598-10.078-2.32-10.719-4.562-13.758
		c-0.558-4.801-2.32-6.242-3.039-6.801l-0.882-0.722c-0.234-3.598,2.082-7.039,4.32-9.195c0.711-0.691,1.59-1.195,2.527-1.625
		c0.145-0.07,0.254-0.172,0.406-0.234c0.946-0.383,2.012-0.622,3.125-0.794c0.309-0.05,0.626-0.09,0.95-0.129
		c2.512-0.258,5.305-0.109,8.195,0.379c0.718,0.16,1.359,0.238,2.078,0.481c0-0.047-0.031-0.07-0.047-0.094
		c0.027,0.012,0.051,0.012,0.078,0.024c-0.024-0.035-0.051-0.055-0.074-0.09h0.207c-8.562-12.722-21.126-5.281-25.126,2.238
		c-2.398,4.481-2.874,12.883-0.156,17.039c0.558,0.883,3.438,1.922,4,4.961C296.48,227.359,293.762,230.961,289.277,233.442z" style="fill: rgb(75, 75, 75);"></path>
	<path class="st0" d="M326.48,220.641l-0.078,0.718v0.082c0,0,0,0,0,0.078l-0.082,0.402l-0.32,1.438
		c-0.481,1.922-0.879,3.922-1.442,5.524c-1.039,3.359-2.398,6.878-4.078,10c-1.519,3.195-3.438,6.078-5.281,8.718
		c-1.922,2.718-3.836,5.117-5.758,7.282c-3.922,4.32-7.523,7.437-10.242,9.515c-2.641,2.082-4.238,3.043-4.238,3.043
		c-0.723,0.48-0.961,1.442-0.558,2.238c0.398,0.801,1.437,1.038,2.238,0.64c0,0,7.278-3.758,16-12.32
		c2.238-2.078,4.481-4.481,6.637-7.282c2.242-2.718,4.402-5.679,6.321-9.038c2-3.36,3.679-6.879,5.203-10.879
		c0.878-1.918,1.281-3.762,1.922-5.68l0.797-3.042l0.801-3.039c0.879-4.078,1.598-8.398,1.278-12.719
		c-0.321-4.398-1.68-8.718-3.836-12.558c-2.164-3.762-5.203-6.961-8.562-9.043c-1.602-1.038-3.282-1.835-4.962-2.476H295.52
		c-0.879,0.398-1.602,0.718-2.242,1.117c-0.957,0.641-1.195,0.883-1.195,0.883l-0.32,0.32c-0.641,0.641-0.719,1.598-0.242,2.398
		c0.562,0.879,1.758,1.118,2.641,0.558c0.078,0,0.641-0.316,1.203-0.558c0.554-0.16,1.758-0.562,3.277-0.718
		c3.039-0.402,7.762-0.402,12.801,1.117c5.039,1.602,10.157,4.961,12.719,10.481c1.359,2.722,1.922,5.922,2.32,9.281
		c0.321,3.36,0.641,7.039,0.321,10.719L326.48,220.641z" style="fill: rgb(75, 75, 75);"></path>
	<polygon class="st0" points="431.441,151.762 243.043,151.762 241.551,164.594 241.364,166.078 241.379,166.078 241.364,166.242 
		429.52,166.242 438.879,166.242 438.879,151.762 	" style="fill: rgb(75, 75, 75);"></polygon>
	<path class="st0" d="M185.77,99.68h-0.25l0,0h-0.156v38.718v8v21.844v49.277c16.637-5.121,30.078-18.078,36.234-35.277
		c1.042-2.562,1.766-5.203,2.32-8c0.32-1.282,0.562-2.641,0.805-4l0.477-4l0.882-7.203l0.879-7.278l1.918-16l3.359-28.242
		c0.242-2.16-0.398-4.238-1.758-5.758c-0.718-0.801-2.242-2.082-4.562-2.082H185.77z" style="fill: rgb(75, 75, 75);"></path>
	<path class="st0" d="M133.68,220h35.684c1.195,0,2.316,0,3.515-0.16v-58.957V99.68H128H79.441c-3.441,0-6.32,3.121-6.32,6.961V220
		h37.602H133.68z M89.364,147.199c-0.633-0.446-1.126-1.371-1.126-2.637V115.68c0-1.68,0.883-2.962,1.922-2.962h18.641
		c1.679,0,2.562,3.203,1.359,5.043L91.52,146.641c-0.57,0.875-1.336,1.004-1.984,0.656C89.476,147.27,89.422,147.238,89.364,147.199
		z" style="fill: rgb(75, 75, 75);"></path>
</g>
</svg>
